<svg width="36" height="40" viewBox="0 0 36 40" fill="none" xmlns="http://www.w3.org/2000/svg">
<g clip-path="url(#clip0_395_1829)">
<path d="M0 16.4805H5.55859C5.54921 16.6407 5.53987 16.9705 5.53987 17.206C5.53987 17.4605 5.53984 17.8562 5.55859 18.0352C4.27655 18.0258 2.86351 18.0164 1.82478 18.0164V19.2602C3.06938 19.2602 4.44498 19.2602 5.47436 19.232C5.46499 19.5523 5.46499 20.3438 5.46499 20.6831C4.45435 20.6642 3.06002 20.6548 1.82478 20.6548V21.9363C2.86351 21.9363 4.33269 21.9269 5.55859 21.9175C5.53984 22.1059 5.53987 22.5017 5.53987 22.7844C5.53987 23.0105 5.53984 23.3592 5.55859 23.5476H0C0.0374316 22.6242 0.0374316 21.5217 0.0374316 20.0141C0.0374316 18.5158 0.0374316 17.3568 0 16.4805Z" fill="black"/>
<path d="M8.52545 21.2485V21.3428C8.52545 21.9741 8.84361 22.2002 9.91976 22.2002C10.9679 22.2002 11.2486 21.9647 11.2486 21.5783C11.2486 21.1637 10.9959 20.8528 9.59226 20.6643C7.39315 20.3534 6.76616 19.6089 6.76616 18.4122C6.76616 17.2344 7.72066 16.3486 9.79811 16.3486C12.0534 16.3486 12.8769 17.1119 12.8769 18.318C12.8769 18.4405 12.8675 18.5724 12.8581 18.7138C12.6616 18.7044 12.3528 18.6949 12.0346 18.6949C11.7165 18.6949 11.389 18.7044 11.1924 18.7138C11.2018 18.6478 11.2018 18.5724 11.2018 18.5159C11.2018 18.1107 10.9398 17.828 9.74197 17.828C8.83427 17.828 8.56287 18.0542 8.56287 18.4028C8.56287 18.7232 8.73133 19.0436 10.2286 19.2509C12.2124 19.5336 12.9704 20.2026 12.9704 21.5124C12.9704 22.7939 12.0721 23.6796 9.92914 23.6796C7.60838 23.6796 6.71002 22.9352 6.71002 21.6725C6.71002 21.5218 6.71939 21.3804 6.73811 21.2203C6.93462 21.2579 7.26213 21.2768 7.58966 21.2768C7.94526 21.2768 8.27279 21.2674 8.52545 21.2485Z" fill="black"/>
<path d="M27.8126 16.4805H22.254C22.2633 16.6407 22.2727 16.9705 22.2727 17.206C22.2727 17.4604 22.2727 17.8562 22.254 18.0352C23.536 18.0258 24.949 18.0164 25.9878 18.0164V19.2602C24.7431 19.2602 23.3675 19.2602 22.3382 19.2319C22.3475 19.5523 22.3475 20.3438 22.3475 20.6831C23.3582 20.6642 24.7525 20.6548 25.9878 20.6548V21.9363C24.949 21.9363 23.4799 21.9269 22.254 21.9174C22.2727 22.1059 22.2727 22.5017 22.2727 22.7843C22.2727 23.0105 22.2727 23.3592 22.254 23.5476H27.8126C27.7751 22.6242 27.7751 21.5217 27.7751 20.014C27.7751 18.5158 27.7751 17.3568 27.8126 16.4805Z" fill="black"/>
<path d="M19.2871 21.2485V21.3427C19.2871 21.9741 18.9689 22.2002 17.8928 22.2002C16.8447 22.2002 16.564 21.9646 16.564 21.5783C16.564 21.1637 16.8166 20.8527 18.2203 20.6643C20.4194 20.3533 21.0464 19.6089 21.0464 18.4122C21.0464 17.2344 20.0919 16.3486 18.0144 16.3486C15.7592 16.3486 14.9357 17.1119 14.9357 18.318C14.9357 18.4405 14.945 18.5724 14.9544 18.7138C15.1509 18.7043 15.4597 18.6949 15.7779 18.6949C16.0961 18.6949 16.4236 18.7043 16.6201 18.7138C16.6108 18.6478 16.6108 18.5724 16.6108 18.5159C16.6108 18.1107 16.8727 17.828 18.0706 17.828C18.9783 17.828 19.2497 18.0542 19.2497 18.4028C19.2497 18.7232 19.0812 19.0435 17.584 19.2509C15.6001 19.5335 14.8421 20.2026 14.8421 21.5124C14.8421 22.7939 15.7405 23.6796 17.8834 23.6796C20.2042 23.6796 21.1025 22.9352 21.1025 21.6725C21.1025 21.5218 21.0932 21.3804 21.0744 21.2202C20.8779 21.2579 20.5504 21.2768 20.2229 21.2768C19.8673 21.2768 19.5398 21.2674 19.2871 21.2485Z" fill="black"/>
<path d="M13.8966 31.1061V8.84881L35.0591 0.090332V39.9097L13.8966 31.1061Z" stroke="black" stroke-width="0.301532"/>
<path d="M35.9554 0H35.0587V40H35.9554V0Z" fill="black"/>
</g>
<defs>
<clipPath id="clip0_395_1829">
<rect width="36" height="40" fill="white"/>
</clipPath>
</defs>
</svg>
