<svg width="179" height="40" viewBox="0 0 179 40" fill="none" xmlns="http://www.w3.org/2000/svg">
<g clip-path="url(#clip0_395_1895)">
<path d="M18.7187 28.7425C18.4987 28.3104 18.3428 27.8232 18.2419 27.2808C18.1411 26.7384 18.0952 25.8927 18.0952 24.7435C18.0952 23.5944 17.8293 22.6843 17.2975 22.2062C16.7657 21.7282 15.9955 21.4892 14.9777 21.4892H10.7416V28.7425H8V11.2389H16.3531C17.5176 11.2389 18.5262 11.4504 19.3697 11.8641C20.2133 12.2778 20.8643 12.8477 21.3044 13.574C21.7446 14.3002 21.9646 15.1 21.9646 15.9826C21.9646 16.8651 21.6529 18.051 21.0385 18.8416C20.4242 19.6322 19.5715 20.2205 18.4712 20.6067C19.3147 20.9376 19.9749 21.434 20.4425 22.0959C20.9102 22.7578 21.1669 23.6404 21.2127 24.7619C21.2586 25.7823 21.3319 26.5362 21.4236 27.0234C21.5153 27.5106 21.7354 27.9519 22.0838 28.338V28.7425H18.7187ZM16.0964 18.8692C17.0408 18.8692 17.7835 18.6485 18.3061 18.2165C18.8288 17.7844 19.0947 17.1685 19.0947 16.3687C19.0947 15.5689 18.8288 14.9529 18.3061 14.5209C17.7835 14.0888 17.05 13.8681 16.0964 13.8681H10.7416V18.8692H16.1055H16.0964ZM37.4421 11.2389V13.8681H27.4661V18.3727H36.6903V21.002H27.4661V26.1317H37.6897V28.7609H24.7245V11.2389H37.4421ZM53.0847 11.2389V13.8681H43.2371V18.8692H52.342V21.4984H43.2371V28.7517H40.4955V11.2389H53.0847ZM58.5679 11.2389V26.1133H69.039V28.7425H55.8263V11.2389H58.5679ZM84.2965 11.2389V13.8681H74.3205V18.3727H83.5446V21.002H74.3205V26.1317H84.5441V28.7609H71.5789V11.2389H84.2965ZM102.176 28.7425H98.8113L93.429 20.1654L90.0914 23.7415V28.7425H87.3498V11.2389H90.0914V19.9172L98.1878 11.2389H101.8L95.3637 18.0878L102.167 28.7425H102.176ZM118.589 13.8681H112.235V28.7425H109.493V13.8681H103.139V11.2389H118.598V13.8681H118.589ZM118.965 19.9907C118.965 18.3452 119.369 16.8283 120.175 15.4494C120.982 14.0704 122.083 12.9856 123.467 12.1858C124.852 11.3952 126.383 10.9907 128.061 10.9907C129.739 10.9907 131.27 11.3952 132.664 12.195C134.048 12.9948 135.149 14.0796 135.956 15.4585C136.762 16.8375 137.166 18.3452 137.166 19.9999C137.166 21.6547 136.762 23.1623 135.956 24.5413C135.149 25.9202 134.048 27.005 132.664 27.8048C131.279 28.6046 129.739 29.0091 128.061 29.0091C126.383 29.0091 124.852 28.6046 123.458 27.8048C122.073 27.005 120.973 25.9202 120.166 24.5413C119.359 23.1623 118.956 21.6547 118.956 19.9999L118.965 19.9907ZM121.826 20.0183C121.826 21.2686 122.101 22.3809 122.66 23.3462C123.22 24.3115 123.971 25.0561 124.916 25.5801C125.86 26.1041 126.915 26.3707 128.061 26.3707C129.207 26.3707 130.252 26.1041 131.206 25.5709C132.15 25.0377 132.902 24.2839 133.462 23.3186C134.021 22.3533 134.296 21.241 134.296 19.9907C134.296 18.7405 134.021 17.6281 133.471 16.6628C132.921 15.6976 132.178 14.9437 131.224 14.4105C130.28 13.8773 129.225 13.6107 128.061 13.6107C126.896 13.6107 125.842 13.8773 124.898 14.4197C123.953 14.9621 123.201 15.716 122.651 16.6812C122.101 17.6465 121.826 18.7589 121.826 20.0091V20.0183ZM150.479 28.7425C150.259 28.3104 150.104 27.8232 150.003 27.2808C149.902 26.7384 149.856 25.8927 149.856 24.7435C149.856 23.5944 149.59 22.6843 149.058 22.2062C148.526 21.7282 147.756 21.4892 146.738 21.4892H142.502V28.7425H139.761V11.2389H148.114C149.278 11.2389 150.287 11.4504 151.13 11.8641C151.974 12.2778 152.625 12.8477 153.065 13.574C153.505 14.3002 153.725 15.1 153.725 15.9826C153.725 16.8651 153.414 18.051 152.799 18.8416C152.185 19.6322 151.332 20.2205 150.232 20.6067C151.075 20.9376 151.736 21.434 152.203 22.0959C152.671 22.7578 152.928 23.6404 152.973 24.7619C153.019 25.7823 153.093 26.5362 153.184 27.0234C153.276 27.5106 153.496 27.9519 153.845 28.338V28.7425H150.479ZM147.857 18.8692C148.802 18.8692 149.544 18.6485 150.067 18.2165C150.589 17.7844 150.855 17.1685 150.855 16.3687C150.855 15.5689 150.589 14.9529 150.067 14.5209C149.544 14.0888 148.811 13.8681 147.857 13.8681H142.493V18.8692H147.857Z" fill="black"/>
<path d="M165.355 22.0408C168.399 22.0408 170.866 19.5671 170.866 16.5157C170.866 13.4644 168.399 10.9907 165.355 10.9907C162.312 10.9907 159.845 13.4644 159.845 16.5157C159.845 19.5671 162.312 22.0408 165.355 22.0408Z" fill="black"/>
</g>
<defs>
<clipPath id="clip0_395_1895">
<rect width="163" height="18.0184" fill="white" transform="translate(8 10.9907)"/>
</clipPath>
</defs>
</svg>
