<svg width="29" height="40" viewBox="0 0 29 40" fill="none" xmlns="http://www.w3.org/2000/svg">
<g clip-path="url(#clip0_395_1829)">
<path d="M0 17.1846H4.47775C4.4702 17.3127 4.46268 17.5766 4.46268 17.765C4.46268 17.9686 4.46265 18.2852 4.47775 18.4284C3.445 18.4209 2.30671 18.4133 1.46996 18.4133V19.4084C2.47255 19.4084 3.58068 19.4084 4.4099 19.3858C4.40235 19.6421 4.40235 20.2753 4.40235 20.5466C3.58822 20.5316 2.46502 20.524 1.46996 20.524V21.5492C2.30671 21.5492 3.49022 21.5417 4.47775 21.5342C4.46265 21.6849 4.46268 22.0015 4.46268 22.2277C4.46268 22.4086 4.46265 22.6875 4.47775 22.8383H0C0.0301533 22.0995 0.0301533 21.2176 0.0301533 20.0114C0.0301533 18.8128 0.0301533 17.8856 0 17.1846Z" fill="black"/>
<path d="M6.8677 20.999V21.0744C6.8677 21.5795 7.124 21.7604 7.9909 21.7604C8.8352 21.7604 9.06135 21.5719 9.06135 21.2629C9.06135 20.9312 8.8578 20.6824 7.72707 20.5316C5.95557 20.2829 5.4505 19.6874 5.4505 18.73C5.4505 17.7877 6.2194 17.0791 7.8929 17.0791C9.70962 17.0791 10.373 17.6897 10.373 18.6546C10.373 18.7526 10.3655 18.8581 10.3579 18.9712C10.1996 18.9637 9.95085 18.9561 9.69455 18.9561C9.43825 18.9561 9.17442 18.9637 9.0161 18.9712C9.02365 18.9185 9.02365 18.8581 9.02365 18.8129C9.02365 18.4888 8.81257 18.2626 7.84767 18.2626C7.11647 18.2626 6.89785 18.4435 6.89785 18.7225C6.89785 18.9788 7.03355 19.2351 8.23967 19.4009C9.83777 19.6271 10.4484 20.1623 10.4484 21.2101C10.4484 22.2353 9.7247 22.9439 7.99845 22.9439C6.12895 22.9439 5.40527 22.3484 5.40527 21.3382C5.40527 21.2176 5.41282 21.1046 5.4279 20.9764C5.5862 21.0066 5.85002 21.0216 6.11387 21.0216C6.40032 21.0216 6.66417 21.0141 6.8677 20.999Z" fill="black"/>
<path d="M22.4046 17.1846H17.9268C17.9344 17.3127 17.9419 17.5766 17.9419 17.765C17.9419 17.9685 17.9419 18.2852 17.9268 18.4284C18.9596 18.4208 20.0978 18.4133 20.9346 18.4133V19.4084C19.932 19.4084 18.8239 19.4084 17.9947 19.3857C18.0022 19.642 18.0022 20.2753 18.0022 20.5466C18.8163 20.5316 19.9395 20.524 20.9346 20.524V21.5492C20.0978 21.5492 18.9143 21.5417 17.9268 21.5341C17.9419 21.6849 17.9419 22.0015 17.9419 22.2277C17.9419 22.4086 17.9419 22.6875 17.9268 22.8383H22.4046C22.3744 22.0995 22.3744 21.2175 22.3744 20.0114C22.3744 18.8128 22.3744 17.8856 22.4046 17.1846Z" fill="black"/>
<path d="M15.5368 20.999V21.0744C15.5368 21.5795 15.2805 21.7604 14.4136 21.7604C13.5693 21.7604 13.3432 21.5719 13.3432 21.2628C13.3432 20.9312 13.5467 20.6824 14.6774 20.5316C16.4489 20.2829 16.954 19.6873 16.954 18.73C16.954 17.7877 16.1851 17.0791 14.5116 17.0791C12.6949 17.0791 12.0315 17.6897 12.0315 18.6546C12.0315 18.7526 12.039 18.8581 12.0466 18.9712C12.2049 18.9637 12.4536 18.9561 12.7099 18.9561C12.9662 18.9561 13.2301 18.9637 13.3884 18.9712C13.3809 18.9184 13.3809 18.8581 13.3809 18.8129C13.3809 18.4888 13.5919 18.2626 14.5568 18.2626C15.288 18.2626 15.5066 18.4435 15.5066 18.7224C15.5066 18.9787 15.371 19.235 14.1648 19.4009C12.5667 19.627 11.9561 20.1623 11.9561 21.2101C11.9561 22.2353 12.6798 22.9439 14.4061 22.9439C16.2756 22.9439 16.9992 22.3484 16.9992 21.3382C16.9992 21.2176 16.9917 21.1045 16.9766 20.9764C16.8183 21.0065 16.5545 21.0216 16.2906 21.0216C16.0042 21.0216 15.7403 21.0141 15.5368 20.999Z" fill="black"/>
<path d="M11.1945 28.8849V11.079L28.242 4.07227V35.9278L11.1945 28.8849Z" stroke="black" stroke-width="0.301532"/>
<path d="M28.9641 4H28.2418V36H28.9641V4Z" fill="black"/>
</g>
<defs>
<clipPath id="clip0_395_1829">
<rect width="29" height="32" fill="white" transform="translate(0 4)"/>
</clipPath>
</defs>
</svg>
