<svg width="76" height="41" viewBox="0 0 76 41" fill="none" xmlns="http://www.w3.org/2000/svg">
<path d="M53.0445 31.1323H40.2159L31.1898 40.1778H44.0109L53.0445 31.1323Z" stroke="black" stroke-width="0.25"/>
<path d="M74.7131 40.1778L65.687 31.1323H53.0445L61.892 40.1778H74.7131Z" stroke="black" stroke-width="0.25"/>
<path d="M65.687 18.2827H53.0445V31.1313H65.687V18.2827Z" stroke="black" stroke-width="0.25"/>
<path d="M31.1899 40.1768V27.3282L22.1638 18.2827V31.1313L31.1899 40.1768Z" stroke="black" stroke-width="0.25"/>
<path d="M22.1637 18.2827H9.34265V31.1313H22.1637V18.2827Z" stroke="black" stroke-width="0.25"/>
<path d="M53.052 18.2827H40.216V31.1313H53.052V18.2827Z" stroke="black" stroke-width="0.25"/>
<path d="M40.2159 31.1313V18.2827L31.1898 27.3282V40.1768L40.2159 31.1313Z" stroke="black" stroke-width="0.25"/>
<path d="M74.7131 40.1768V27.3282L65.687 18.2827V31.1313L74.7131 40.1768Z" stroke="black" stroke-width="0.25"/>
<path d="M22.1638 0.177246H9.34269L0.301697 9.23765H13.1377L22.1638 0.177246Z" stroke="black" stroke-width="0.25"/>
<path d="M22.1637 18.2831L31.1898 9.23765L22.1637 0.177246L13.1376 9.23765L22.1637 18.2831Z" stroke="black" stroke-width="0.25"/>
<path d="M31.1899 27.3288L40.216 18.2833L31.1899 9.23779L22.1638 18.2833L31.1899 27.3288Z" stroke="black" stroke-width="0.25"/>
<path d="M22.1638 18.2833L13.1377 9.23779H0.301697L9.34269 18.2833H22.1638Z" stroke="black" stroke-width="0.25"/>
<path d="M12.3191 13.9958V14.6893C12.3191 14.7415 12.3563 14.7713 12.3563 14.7713L15.675 15.6737C16.3968 15.8675 16.7614 16.5536 16.7614 17.1949V17.9704C16.7614 18.1792 16.6945 18.5223 16.5233 18.7833C16.3522 19.0294 15.8462 19.5663 15.5709 19.7378C15.3625 19.8571 15.0202 19.9839 14.7077 19.9839H12.706C11.9098 19.9839 11.2922 19.3127 10.9797 18.8728C10.8085 18.6341 10.6523 18.3657 10.5332 18.0376L12.0065 17.5827C12.1926 17.9108 12.4084 18.2762 12.6837 18.4626H14.6705C14.8639 18.3582 15.1393 18.0301 15.1393 18.0152V17.2396C15.1393 17.1725 15.1021 17.1576 15.1021 17.1576C14.0157 16.8668 12.892 16.5536 11.7982 16.2702C11.069 16.0763 10.7118 15.3903 10.7118 14.749V14.0256C10.7118 13.787 10.749 13.4663 10.9201 13.1979C11.0764 12.9742 11.5973 12.4373 11.9024 12.2583C12.1107 12.139 12.4381 12.0122 12.7507 12.0122H14.6035C15.3997 12.0122 16.0024 12.6833 16.315 13.1084C16.5233 13.3992 16.6573 13.6677 16.7614 13.9436L15.2881 14.3612C15.1169 14.0107 14.9607 13.787 14.5961 13.5335H12.8028C12.5944 13.6453 12.3191 13.9809 12.3191 13.9958Z" fill="black"/>
<path d="M23.7859 18.7755C23.6297 18.9992 23.1311 19.5585 22.8484 19.73C22.6102 19.8642 22.2977 19.9761 21.9852 19.9761H20.244C19.9165 19.9761 19.604 19.8568 19.3808 19.73C19.0906 19.5585 18.5846 18.9992 18.4283 18.7755C18.2572 18.5294 18.2051 18.2386 18.2051 17.9627V12.0566H19.7975V17.9478C19.9537 18.1417 20.177 18.3803 20.2812 18.4474H21.9405C22.0447 18.3803 22.2679 18.1715 22.4093 17.9627V12.0566H24.0017V17.9627C24.0017 18.2386 23.9496 18.522 23.7859 18.7755Z" fill="black"/>
<path d="M29.8728 19.9164L27.3353 15.293V19.9164H25.7429V12.0566H27.3725L29.8802 16.7397V12.0566H31.48V19.909H29.8728V19.9164Z" fill="black"/>
<path d="M10.7639 29.3793V21.5195H15.9132V23.0482H12.3563V24.659H15.7941V26.1877H12.3563V27.8432H15.9057V29.3719H10.7639V29.3793Z" fill="black"/>
<path d="M19.1128 23.0557V24.6664H22.4836V26.1951H19.1128V29.3793H17.5204V21.5195H22.6697V23.0482H19.1128V23.0557Z" fill="black"/>
<path d="M25.8619 23.0557V24.6664H29.2328V26.1951H25.8619V29.3793H24.2695V21.5195H29.4188V23.0482H25.8619V23.0557Z" fill="black"/>
<path d="M31.0261 29.3793V21.5195H36.168V23.0482H32.6185V24.659H36.0563V26.1877H32.6185V27.8432H36.168V29.3719H31.0261V29.3793Z" fill="black"/>
<path d="M42.2027 23.8237C42.0316 23.4733 41.8753 23.2495 41.5107 22.996H39.8811C39.7472 23.0855 39.4867 23.339 39.3751 23.518V27.4181C39.3751 27.433 39.5686 27.7164 39.8811 27.9028H41.5405C41.8158 27.7164 42.0242 27.4479 42.2102 27.1198L43.6984 27.4852C43.5794 27.8133 43.4231 28.0892 43.252 28.3204C42.9394 28.7678 42.3218 29.4315 41.5256 29.4315H39.8141C39.5016 29.4315 39.1742 29.3122 38.951 29.1854C38.6756 29.0139 38.1771 28.4919 37.9985 28.2458C37.8422 27.9997 37.7753 27.694 37.7753 27.433V23.4658C37.7753 23.175 37.8274 22.9065 37.9985 22.653C38.1548 22.4442 38.6682 21.8923 38.9658 21.7134C39.1742 21.5941 39.5016 21.4673 39.8141 21.4673H41.5256C42.3218 21.4673 42.9245 22.1384 43.2371 22.5635C43.4454 22.8543 43.5794 23.1228 43.6835 23.3987L42.2027 23.8237Z" fill="black"/>
<path d="M47.8505 23.0556V29.3792H46.2432V23.0556H44.1299V21.5269H49.9564V23.0556H47.8505Z" fill="black"/>
<path d="M52.0325 23.4587V24.1522C52.0325 24.2044 52.0697 24.2342 52.0697 24.2342L55.3885 25.1365C56.1103 25.3304 56.4749 26.0165 56.4749 26.6578V27.4333C56.4749 27.6421 56.4079 27.9852 56.2368 28.2462C56.0656 28.4922 55.5596 29.0292 55.2843 29.2007C55.0759 29.32 54.7337 29.4468 54.4211 29.4468H52.4195C51.6233 29.4468 51.0056 28.7756 50.6931 28.3356C50.522 28.097 50.3657 27.8286 50.2466 27.5005L51.72 27.0456C51.906 27.3737 52.1218 27.7391 52.3971 27.9255H54.3988C54.5923 27.8211 54.8676 27.493 54.8676 27.4781V26.7025C54.8676 26.6354 54.8304 26.6205 54.8304 26.6205C53.744 26.3297 52.6204 26.0165 51.5265 25.7331C50.7973 25.5392 50.4401 24.8532 50.4401 24.2119V23.4885C50.4401 23.2499 50.4773 22.9292 50.6485 22.6608C50.8047 22.4371 51.3256 21.9002 51.6307 21.7212C51.839 21.6019 52.1665 21.4751 52.479 21.4751H54.3318C55.128 21.4751 55.7308 22.1462 56.0433 22.5713C56.2516 22.8621 56.3856 23.1306 56.4898 23.4065L55.0164 23.8241C54.8453 23.4736 54.689 23.2499 54.3244 22.9963H52.5236C52.3078 23.1082 52.0325 23.4438 52.0325 23.4587Z" fill="black"/>
</svg>
