<?xml version="1.0" encoding="utf-8"?>
<!-- Generator: Adobe Illustrator 24.3.0, SVG Export Plug-In . SVG Version: 6.00 Build 0)  -->
<svg version="1.1" id="Lag_1" xmlns="http://www.w3.org/2000/svg" xmlns:xlink="http://www.w3.org/1999/xlink" x="0px" y="0px"
	 viewBox="0 0 2104 2287.4" style="enable-background:new 0 0 2104 2287.4;" xml:space="preserve">
<style type="text/css">
	.st0{fill:#151515;}
</style>
<g>
	<path class="st0" d="M1637.8,870.7L1637.8,870.7L1637.8,870.7z"/>
	<path class="st0" d="M947.5,2074.2l-29.8-55.9C928.8,2046.1,939.4,2067.3,947.5,2074.2z"/>
	<path class="st0" d="M156.3,630.8c-3.7-11.1-5.3-25-4.5-39.2c-0.8,3.1-1.7,6.2-2.5,9.1c-2.3,9-4.2,17.8-5.4,26.6
		c-0.7,4.4-1.1,8.8-1.4,13.2c-0.4,4.4-0.5,8.9-0.5,13.2c0,8.6,0.5,17,2.2,25.4c1.1,5.5,2.6,11.1,4.5,16.8
		c7.2-12.1,14.7-24,22.4-35.7C164,650.9,159.7,641,156.3,630.8z"/>
	<g>
		<g>
			<path class="st0" d="M1795.2,432.3c-1.7,19.4-3.8,36.9-5.9,52.7c-7.7,57.6-15.5,91.3-6.6,101.6c-1.4,2.9-2.7,5.8-4.1,8.6
				c-10.1,20-21.6,39.5-35.8,55.6c-3.5,4-7.3,7.7-11.1,10.9c-3.8,3.1-8,5.8-11.1,6.7c-0.8,0.3-1.3,0.3-1.7,0.4c-0.1,0-0.3,0-0.2,0
				l0,0l-0.3-0.1l-0.6-0.2c-1.5-0.5-2.7-1.1-4-2.2c-2.7-2.2-5.6-6.8-8.9-11.8s-7.3-10.5-12.3-15.1s-10.8-8.4-16.8-11.1
				c-3.2-1.5-6.5-2.7-9.8-3.7c-6.6-31.5-18.3-61.2-33.3-99.3c-14.7-37.5-38.3-80.2-85.5-165.5c-17.8-32.2-25.6-53.4-36.8-71.7
				c-5.5-8.9-11.8-17.2-20.5-25.7c-29.4-28.8-60.6-41.7-57.1-51.4c2.8-7.8,26.5-9.1,44.4-2.2c5.8,2.2,12.7,7.8,26.7,18.9
				c19.5,15.6,29.9,27.2,34.4,32.4c3.8,4.4,6.5,7.9,8.1,10c19.8,25.8,32,45,43.8,61.1c5.5,7.5,10.9,14.3,17,20.8
				c18.4,19.9,40.5,43.8,68.8,42.2c2.3-0.1,4.6-0.5,6.9-0.9c26-5.2,43.1-30.4,49.1-38.8c38.9-55,10.7-129.1,7.1-138.9
				c-16.8-45.4-31.6-42.8-54.7-97.6s-29-115.2-18.9-118.1c4-1.2,10.5,6.9,14.2,11.6c12.7,15.9,13.8,32.2,15.4,43.2
				c3.3,22.2,10.8,37.6,22.5,61.1c13.9,28.1,27.4,36.2,42.5,56.3c24.5,32.5,28.7,63.6,35.5,115.3
				C1797.1,300.5,1802.9,347.3,1795.2,432.3z"/>
			<path class="st0" d="M1372,1190c-24.2,12-47.9,25.6-67.7,43.4c23.3-12.6,48.6-20,73.9-25.8c25.4-5.5,51.1-8.9,76.6-10.3
				c6.4-0.3,12.7-0.5,19-0.5c3.2-0.1,6.3,0,9.4,0.1s6.2,0.1,9.7,0.1c13.5-0.1,27.1-0.5,40.8-1.3c13.7-0.8,27.6-2,41.9-4.1
				c7.2-1.1,14.5-2.5,22.2-4.4c4.8-1.3,9.8-2.6,15.1-4.7c15.9-3.7,31.4-8.5,45-13.8c13.4-5.2,67.6-27.3,117.3-81.9
				c82.4-90.7,80.4-191.6,78.6-203.3c0,0,0-0.2-0.1-0.4c-0.4-3.1-2.8-21.4,5.6-41.6c1.7-4.2,6.3-15.1,10.7-14.8
				c7.9,0.6,10.2,38.9,10.7,46.4c5.2,87.8-31.1,162.7-37.3,175.1c-9.4,18.9-24.4,48.3-53.3,80c-15.4,16.8-55.1,56.6-118.5,81.4
				c-42.3,16.6-98.2,27.7-142.1,23.5c-7.4-0.7-29-3.3-58.1-0.6c-11.7,1.1-25.7,2.5-43.3,7.5c-11.8,3.3-39.9,12.5-78.6,43.1
				c-6.5,5.2-10.8,8.9-19.3,16.5c-37.3,33.2-58.1,51.8-73.9,79.9c-7.7,13.7-6.4,15.7-23.2,48.8c-0.3,0.5-0.9,1.8-1.9,3.5
				c1.8,0.6,3.7,1.2,5.5,1.8c20.2-32.6,40.6-45.5,58.7-49.4c19.5-4.2,46.5-0.1,90.7-13.6c31-9.5,54.7-22.9,69.6-32.5
				c0.3-0.7,0.5-1.2,0.7-1.4c0.1-0.2,0.3-0.3,0.5-0.3c0.9-0.1,2.1,4.3,2.3,4.9c5.9,22.3-9.5,68.4-9.5,68.4
				c-2.5,9.4-6.5,22.5-12.9,37.5c-7.4,17.6-15.9,37.8-33.8,59.3c-5.9,7.1-23.7,27.3-52.5,43.4c-24.5,13.6-41.9,15.8-46.2,16.3
				c-8,0.9-14.6,0.6-18.3,0.5c-2.8-0.1-5.4-0.3-7.8-0.6c-11.3,10.2-26.1,21.1-30,40.6c-2.3,11.3,1,16.6-1.8,32.6
				c-3.3,19-11.4,32-14.3,37.3c-19.5,34.8-22,100.3-23.2,116.4c-0.5,6.7-2.6,18-5.9,32.3c16.4,50.5,34.8,107.8,57.4,172.5
				c46.9,134.7,77,200.5,93.8,245.8c-95.7,28.7-197.1,44.1-302.2,44.1c-120.9,0-236.9-20.4-345-57.9c1-8.2,2.3-17.5,3.5-27.6
				c17.9-143,56.2-155.9,122.4-342.3l84.7,158.7c11.2,27.9,21.8,49,29.8,55.9L849,1759c-2.7-26.3-8.3-60.3-20.5-82.2
				c-2.9-5.2-11-18.3-14.3-37.3c-2.8-16,0.5-21.2-1.8-32.6c-4-20-19.4-30.9-30.9-41.4c-4.2,0.6-8.8,1.1-14,1.3
				c-3.8,0.1-10.4,0.4-18.3-0.5c-4.3-0.5-21.7-2.6-46.2-16.3c-28.8-16-46.6-36.3-52.5-43.4c-17.9-21.5-26.4-41.8-33.8-59.3
				c-6.3-15.1-10.3-28.1-12.9-37.5c0,0-15.4-46.1-9.4-68.4c0.2-0.6,1.4-5,2.3-4.9c0.1,0,0.3,0.1,0.4,0.3c0.2,0.3,0.4,0.7,0.7,1.4
				c14.9,9.6,38.6,23,69.6,32.5c44.2,13.6,71.2,9.5,90.7,13.6c18.5,3.9,39.4,17.3,60,51.4c3.7-1.3,7.5-2.6,11.5-3.9
				c-9.1-13.4-12.9-23.4-17.8-32.2c-10-18-20.6-23.7-96.3-68.9c-59.4-35.5-64.5-38.1-78.6-42.4c-26.3-8.1-54.4-1.5-81.3-1.6
				c-40.8-0.1-81.7-2.8-122.2-8.1c-47-6.1-89.2-11.3-125.1-25c-37.2-17-55.2-37.6-64.2-50.6c-18-26-23.7-56.4-25-84.2
				c1.1,3.6,2.3,7.2,3.7,10.7c2,5.1,4.1,10.2,6.6,15.2c2.6,5,5.3,10,8.6,14.7c6.4,9.5,14.6,18.3,23.8,25.2c4.5,3.5,9.3,6.5,13.9,9.3
				c4.6,2.6,9.2,5,14.3,7.4c10.3,4.8,21.2,7.4,31.8,8.8c6,1.6,11.9,2.4,17.8,2.5c19.5,6.6,35.3,8.3,47.4,9.9
				c19.6,2.6,44.5,6.8,67.4,5.8c21.1,1.3,42.3-1.3,62.8-3.9c11.7-1.5,23.3-3.3,34.6-4.6c5.6-0.6,11.2-1.3,16.1-1.3h1.9l2.1,0.1
				l4.3,0.1l8.5,0.3c11.3,0.4,22.3,1.1,33.1,2.3c10.7,1.4,21.6,3.3,33.1,5.5c11.7,2,21.8,3.2,32.2,6.3c10.2,3,21.2,7.6,33,10.8
				c51.9,33.3,95.5,56,126.2,70.8c45.9,22.2,89.2,39.2,134.8,82.9c3.8,3.7,7.3,7.2,10.5,10.5c16.2,0.3,30.6,1.3,42.8,2.6
				c10.2-1.1,22-2,35.1-2.4c3.3-5.8,10.4-14.3,25.7-27c27.4-22.6,49.3-32.3,71.1-44.4c16.4-9.2,33.2-21.4,66.6-45.9
				c18.1-13.3,58.3-43.4,105.4-86c17.2-15.6,58.1-54.8,118-121.1c88.4-97.8,131-148.1,164.1-213.6c16.8-33.2,35.1-69.6,46-111.8
				c1.1,4.4,1.9,8.9,2.3,13.5c0.8,11.2-0.5,22.6-3,33.8c-5,22.4-14.7,43.7-23.8,65c10.3-20.7,21.2-41.3,27.6-64
				c3.2-11.3,5.3-23,5.1-35c-0.1-6-0.8-12-2.2-17.9c-1.4-5.8-3.1-11.5-5.1-17.1c-8-22.3-20.4-42.7-31.8-62.6c-2.8-5-5.6-10-7.9-14.9
				s-4.3-10.1-4.3-13.9c0-0.9,0.1-1.6,0.3-2.2c0.2-0.6,0.4-0.8,0.8-1.4c0.8-1,2.3-2,4.2-2.8c3.9-1.6,8.9-2.3,14-2.3
				c10.2,0.1,20.9,2.6,29.8,7.1c9.1,4.6,15.2,11.3,20.6,20.8c2.9,4.7,5.6,10.5,11.5,16.2c2.9,2.8,6.7,5.3,10.7,6.8l1.5,0.5l0.8,0.2
				l1,0.3c1.5,0.4,2.8,0.5,4.1,0.5c2.6,0.1,4.9-0.2,6.9-0.7c3.2-0.8,6-1.8,8.6-3c4-1.8,7.5-4,10.8-6.3c5.4-3.8,10.1-8,14.6-12.4
				c17.7-17.7,31.1-37.8,43.3-58.3c6-10.3,11.7-20.8,17-31.4l2-4l1-2.1c0.5-1.1,0.9-2.2,1.3-3.4s0.7-2.3,1-3.5
				c5-10.3,4.7-22.2,1.9-40.1c-2.3-14.3-6.1-32.5-10.2-56.8c-11.6-69.8-7.1-85.5,0.3-97.9c10.9-18.3,34.4-39.8,55.3-37
				c4.3,0.6,11.4,2.5,12.3,6.3c1.6,6.8-18.8,11.4-30.1,24.3c-10.7,12.3-10.6,29.3-2.4,63.3c13.7,56.4,25.2,58,29.6,86.4
				c3.6,23.7-0.8,46.1-8.3,65.8c-9.9,26-25.2,47.1-34.3,59.7c-20.9,28.8-29.7,26.2-58,60.1c-28.1,33.8-37,54.7-68.9,113.3
				c-41.8,76.9-62.8,115.3-87.9,149.5c-43.2,58.9-64.8,88.4-75.6,100.6c-9.1,10.4-30.9,34.6-41.8,71.3c-1.7,5.6-3.1,10.6-4.2,15.3
				c-4.8,0.9-9.6,1.9-14.4,2.8c-3.1,0.5-6.6,1.3-10,2.1c-3.4,0.8-6.8,1.5-10.2,2.4c-6.8,1.6-13.4,3.5-20,5.4
				C1421.8,1168.4,1396.4,1178.2,1372,1190z"/>
			<path class="st0" d="M153.8,708.9c6,14.9,16.5,27.7,30.1,36.3c6.4,4.1,13.1,7.8,19.9,11.1c6.9,3.3,14,5.9,21.1,8.7
				c3.3,1.3,6.8,2.2,10.3,3.1c9.9,2.4,24.5,9.7,32.1,16.5c13.5,12.2,22.9,26.8,33.5,41.4c28.6,39.3,38.9,56.6,38.9,56.6
				c40.1,67.8,46.8,66.4,112.7,175c20.1,33.1,70.8,121.3,54.6,148c-0.4,0.5-0.9,1.1-1.3,1.6c2.3-0.8,4.6-1.6,6.9-2.4
				c11.2-3.8,22.6-7.3,34.4-10.4c6-1.5,12-2.8,18.9-3.6c3.6-0.5,6.2-0.7,9.4-1l9.1-0.7c12.2-0.5,24.8-0.4,37.4,1.4
				c12.6,1.7,24.8,5.1,36,8.7c6.6,2.1,13.9,4.8,20.8,8.4c-57-54.8-140.7-134.8-163.7-160.8c-22.3-25.2-44.8-48.8-64-76.3
				c-24.6-35.1-50.7-69.4-72.4-106.1c-7-11.8-12.6-22.4-17.7-34.2c-10.2-15.4-21.5-30-33.3-44.1c-13.4-15.7-27.6-30.7-43.1-43.6
				c-7.7-6.4-15.8-12.3-24.1-16.8c-8.9-4.8-18.4-10.1-27.4-15.7c-9.1-5.5-18.1-11.4-27-18c-6.2-4.6-12.4-9.6-18.3-15.3
				c-4.3-3.7-8.2-7.6-11.3-10.9c-1.8-1.9-3.5-3.9-5.1-5.9c-7.7,11.7-15.1,23.7-22.4,35.7c1,3,2.1,6,3.3,9
				C152.6,706,153.2,707.4,153.8,708.9z"/>
			<path class="st0" d="M111.6,638.4c0.4-5.4,1.1-10.8,2.1-16.2c2.1-10.6,5.3-20.9,9.4-30.5c4.1-9.7,8.9-18.5,14.2-27.4
				c5.5-9.1,11.9-17.5,19.3-24.8c0.4-0.4,0.9-0.8,1.3-1.2c4.8-5.2,9.9-9.9,15.3-14.1c9.4-7.5,19.4-13.9,29.6-19.6
				c10.2-5.7,20.8-10.7,31.5-15.2c5.4-2.2,10.7-4.3,16.4-6.3l4.2-1.3c1.1-0.4,1.9-0.7,2.4-1.1c0.5-0.3,0.6-0.5,0.6-0.6
				c0.1-0.1,0.1-0.4,0.1-1.3c-0.2-2.1-0.6-3.1-1.2-3.5c-0.3-0.3-0.9-0.6-1.6-0.7c-0.8-0.2-1.9-0.2-3.2-0.2c-5,0.2-10.7,1.3-16.2,2.3
				c-10.7,2.2-21.5,5.8-32,9.8c-7.4,2.9-14.8,6.1-22,9.6c-6,3.3-11.9,7.1-17.8,11.5c-27.9,21.1-46.1,51.8-53.3,85.9
				c-3.7,17.4-3.2,35.2,0.5,52.2C111.4,643.3,111.5,640.8,111.6,638.4z"/>
			<path class="st0" d="M532.7,286.9c0,0-34.3,31-74.8,80.3C399.3,438.4,328,547.8,328.6,657.5c0.2,33.7,2.9,67.5,10,100.6
				c4.3,19.9,9.8,39.6,16.8,58.8c0.4,1.1,0.8,2.1,1.2,3.2c-6.9-13.2-14.6-26-22.7-38.6c-11.4-17.6-23.8-34.7-38.4-50.6
				c-7.4-7.9-15.2-15.5-24.4-22.2c-8.7-6.2-16.8-12-24.9-18.3c-6.4-5-12.6-10.2-18.5-15.5c2.5-14.4-2.7-36-4-44.9
				c-1.7-11.9-4-23.8-6-35.7c-0.7-4.4-1.4-8.8-2.1-13.2c-0.5-3.6-7.6-36.7-12-57.4c2.5-1.8,5-3.6,7.6-5.3
				c9.1-6.2,18.7-11.8,28.6-16.9c4.9-2.5,10.1-5.1,14.9-7.2c1.9-0.7,5.6-1.4,9.2-3.9c1.8-1.2,3.8-3.3,4.8-5.9c1-2.5,1-5.2,0.7-7.1
				c-0.3-1.8-0.8-3.8-1.8-5.8s-2.7-4-4.8-5.3c-2-1.3-4.2-1.9-6.4-2.1c-2-0.2-3.7,0-5.4,0.2c-6.4,1-11.6,2.7-17.2,4.2
				c-11.4,3.4-21.8,7.9-32.2,12.8c-3.8,1.8-7.5,3.8-11.2,5.8c-1.2-2.1-2.3-4.1-3.5-5.8c-3.5-5.1-19.8-27.4-25.5-59.9
				c-2-11.4-2-20.9-1.9-26.8c9.2-8.7,15.3-9.5,19-8.9c8.6,1.5,10.2,11.7,23.1,21.9c10.8,8.5,21.9,6.5,31.4-3.7
				c9.2-9.8,14-26.8,20.3-38.8c7.5-14.3,17.4-28.2,31.2-36.9c8.4-5.3,18.4-8.6,28.3-9.7c4.2-0.5,9.1-1.6,11.1,2.7
				c3.8,8.4-13.1,18.7-17.9,23.4c-10.1,9.8-18,21.8-23.9,34.5c-12.4,26.8-18,63.3,0.8,88.7c10,13.5,30.6,15.7,43.8,5.1
				c0.5-0.4,0.9-0.8,1.4-1.2c10-8.2,19.1-16.6,27.8-25.5c8.9-9.1,17.3-18.5,25.8-28.6c12.4-14.7,23.1-31,32.7-47.6
				c8.8-15.1,21.9-28.3,34.3-40.8c19.8-19.8,41.6-37.6,64.9-52.9c4.4-2.9,26.1-20.6,31.9-13.6C550,268.3,535.6,283.4,532.7,286.9z"
				/>
			<path class="st0" d="M222.9,1029.5c0,3.4-0.1,6.8-0.4,10.3c2.4,8,4,16.2,5.8,23.9c1.1,5,2.2,10,3.5,14.7
				c1.2,4.7,2.7,9.3,4.2,13.7c3.2,9,7.2,17.4,11.8,25.8c4.8,8.4,10,16.4,15.4,23.7c5.4,7.3,11.2,13.8,17.9,20.1
				c0.1,0.1,0.2,0.2,0.3,0.3c-7-16.2-9.7-36-11.6-52.1c-3-24.9-2.7-50.1-6.2-75c-4.4-30.5-17.2-57.7-37.5-80.9
				c-7.6-7.4-16.4-14-26.4-17.8c-5.5-2-19.3-6.5-17.9,4.6c0.7,5,4.2,6.9,7.2,10.2c3.8,4.2,7.1,9.3,10.5,13.9
				c6.4,8.7,13.1,17.8,16.9,27.9c5.2,13.9,6.3,22.6,6.8,26.7L222.9,1029.5z"/>
		</g>
	</g>
</g>
</svg>
